<svg version="1.1" xmlns="http://www.w3.org/2000/svg" xmlns:xlink="http://www.w3.org/1999/xlink" viewBox="0 0 75 24" enable-background="new 0 0 75 24" xml:space="preserve"><g id="logo"><path fill="#FFFFFF" d="M2.032,22.813c0,0-1.202-0.104-1.202-1.201s0-13.212,0-13.212S0.9,7.197,2.032,7.197 c1.133,0,1.805,0,1.805,0s1.202,0.082,1.202,1.202c0,1.119,0,13.212,0,13.212s-0.025,1.201-1.202,1.201S2.032,22.813,2.032,22.813z "/><path fill="#FFFFFF" d="M0.83,2.393c0,0,0.008-1.2,1.202-1.2c1.196,0,1.805,0,1.805,0s1.202,0.039,1.202,1.2 c0,1.162,0,1.803,0,1.803S5.012,5.396,3.837,5.396c-1.174,0-1.805,0-1.805,0S0.83,5.352,0.83,4.195V2.393z"/><path fill="#FFFFFF" d="M8.625,22.813c0,0-1.229-0.006-1.229-1.237s0-8.044,0-8.044s0.489-6.334,6.965-6.334 c6.477,0,6.959,6.334,6.959,6.334v8.014c0,0-0.017,1.268-1.262,1.268c-1.244,0-1.893,0-1.893,0s-1.261-0.018-1.261-1.268 c0-1.251,0-6.973,0-6.973s-0.022-2.627-2.604-2.627c-2.583,0-2.604,2.604-2.604,2.604v7.026c0,0-0.066,1.237-1.229,1.237 C9.306,22.813,8.625,22.813,8.625,22.813z"/><path fill="#FFFFFF" d="M26.69,22.813c0,0-1.203-0.016-1.203-1.201s0-10.21,0-10.21h-1.235c0,0-1.17-0.06-1.17-1.201 c0-1.141,0-1.801,0-1.801s0.056-1.202,1.202-1.202c1.147,0,1.212,0,1.212,0s-0.42-2.276,1.44-4.137 c1.86-1.861,3.964-1.868,3.964-1.868l0.976-0.005c0,0,0.824-0.041,0.824,0.93s0,2.305,0,2.305s0.013,1.039-0.824,1.039 s-0.837,0-0.837,0s-1.342,0.23-1.342,1.137c0,0.904,0,0.6,0,0.6h1.805c0,0,1.202,0.032,1.202,1.202s0,1.801,0,1.801 s0.009,1.201-1.202,1.201c-1.212,0-1.805,0-1.805,0v10.21c0,0-0.041,1.201-1.203,1.201C27.333,22.813,26.69,22.813,26.69,22.813z" /> <path fill="#FFFFFF" d="M36.313,22.813c0,0-1.202-0.032-1.202-1.201s0-19.219,0-19.219s0.022-1.2,1.202-1.2s1.805,0,1.805,0 s1.202,0.024,1.202,1.2c0,1.177,0,19.219,0,19.219s-0.04,1.201-1.202,1.201C36.954,22.813,36.313,22.813,36.313,22.813z"/><path fill="#FFFFFF" d="M66.038,11.961l-2.891-3.845c0,0-0.739-0.919-1.612-0.919c-0.874,0-3.083,0-3.083,0 s-0.824-0.038-0.23,0.919l5.34,7.101l-5.077,6.678c0,0-0.651,0.861,0.231,0.918h3.114c0,0,0.884-0.019,1.631-0.918l2.577-3.386 l2.546,3.386c0,0,0.746,0.918,1.611,0.918c0.866,0,3.084,0,3.084,0s0.859,0.006,0.229-0.918l-4.995-6.638l5.425-7.141 c0,0,0.652-0.841-0.233-0.919h-3.113c0,0-0.897,0.016-1.631,0.919L66.038,11.961z"/><path fill="#FAB42A" d="M41.726,11.401V8.399c0,0-0.013-1.202,1.202-1.202s1.804,0,1.804,0s1.203,0.047,1.203,1.202 s0,3.002,0,3.002H41.726z"/><path fill="#FAB42A" d="M51.348,11.401V8.399c0,0-0.013-1.202,1.202-1.202c1.214,0,1.804,0,1.804,0s1.203,0.047,1.203,1.202 s0,3.002,0,3.002H51.348z"/><path fill="#FFFFFF" d="M48.641,22.813c2.32,0,3.564-0.725,5.246-2.405c1.682-1.682,1.67-4.443,1.67-4.443v-2.761l-4.241-0.013 v2.773c0,0-0.155,2.66-2.659,2.66c-2.506,0-2.661-2.66-2.661-2.66V13.19h-4.27l0.001,2.773c0,0-0.013,2.761,1.669,4.443 C45.078,22.089,46.504,22.813,48.641,22.813z"/></g></svg>