<?xml version="1.0" encoding="utf-8"?>
<!-- Generator: Adobe Illustrator 16.0.0, SVG Export Plug-In . SVG Version: 6.00 Build 0)  -->
<!DOCTYPE svg PUBLIC "-//W3C//DTD SVG 1.1//EN" "http://www.w3.org/Graphics/SVG/1.1/DTD/svg11.dtd">
<svg version="1.1" id="Small" xmlns="http://www.w3.org/2000/svg" xmlns:xlink="http://www.w3.org/1999/xlink" x="0px" y="0px"
	 width="69.15px" height="78.075px" viewBox="915.425 10.965 69.15 78.075" enable-background="new 915.425 10.965 69.15 78.075"
	 xml:space="preserve">
<g>
	<path fill="#FAB42A" d="M915.425,31.98V16.975c0,0-0.069-6.01,6.005-6.01c6.075,0,9.025,0,9.025,0s6.015,0.235,6.015,6.01
		s0,15.01,0,15.01h-21.045V31.98z"/>
	<path fill="#FAB42A" d="M963.53,31.98V16.975c0,0-0.061-6.01,6.015-6.01c6.065,0,9.016,0,9.016,0s6.015,0.235,6.015,6.01
		s0,15.01,0,15.01H963.53V31.98z"/>
	<path fill="#FFFFFF" d="M949.995,89.04c11.6,0,17.819-3.625,26.229-12.024c8.41-8.41,8.351-22.216,8.351-22.216V40.99l-21.2-0.065
		V54.79c0,0-0.78,13.3-13.3,13.3c-12.53,0-13.3-13.3-13.3-13.3V40.93h-21.351v13.865c0,0-0.06,13.805,8.351,22.215
		S939.311,89.04,949.995,89.04z"/>
</g>
</svg>
