<?xml version="1.0" encoding="utf-8"?>
<!-- Generator: Adobe Illustrator 16.0.0, SVG Export Plug-In . SVG Version: 6.00 Build 0)  -->
<!DOCTYPE svg PUBLIC "-//W3C//DTD SVG 1.1//EN" "http://www.w3.org/Graphics/SVG/1.1/DTD/svg11.dtd">
<svg version="1.1" id="Layer_1" xmlns="http://www.w3.org/2000/svg" xmlns:xlink="http://www.w3.org/1999/xlink" x="0px" y="0px"
	 width="313.21px" height="94.104px" viewBox="0 0 313.21 94.104" enable-background="new 0 0 313.21 94.104" xml:space="preserve">
<g>
	<path fill="#FFFFFF" d="M0,33.29c0-1.087,0.305-2.025,0.915-2.809c0.613-0.78,1.561-1.172,2.852-1.172h11.659
		c0.407,0,0.847,0.094,1.322,0.284c0.476,0.186,0.918,0.458,1.326,0.816c0.405,0.355,0.753,0.771,1.041,1.248
		c0.288,0.475,0.435,1.021,0.435,1.633v56.887c0,1.292-0.355,2.269-1.071,2.932c-0.711,0.662-1.73,0.995-3.052,0.995H3.767
		C1.255,94.104,0,92.793,0,90.177V33.29z"/>
	<path fill="#FFFFFF" d="M136.89,30.143c-0.784-0.61-1.722-0.913-2.809-0.913h-8.479v-6.088c0-0.714,0.154-1.367,0.458-1.965
		c0.307-0.592,0.713-1.11,1.223-1.553c0.508-0.445,1.086-0.792,1.73-1.046c0.645-0.257,1.322-0.385,2.037-0.385h3.367
		c1.084,0,1.959-0.413,2.621-1.248c0.662-0.833,0.992-1.88,0.992-3.14V4.062c0-1.225-0.312-2.186-0.94-2.885
		c-0.628-0.695-1.521-1.043-2.673-1.043h-3.367c-3.226,0-6.313,0.605-9.267,1.814c-2.953,1.204-5.566,2.855-7.84,4.946
		c-2.274,2.089-4.09,4.532-5.447,7.32c-1.356,2.786-2.036,5.766-2.036,8.928v6.088h-5.28c-2.617,0-3.926,1.252-3.926,3.766v1.507
		c0,0.039-0.008,0.073-0.008,0.112l0.008,0.011v10.029c0,1.321,0.332,2.339,0.995,3.05c0.663,0.716,1.64,1.073,2.931,1.073h5.28
		v41.398c0,1.088,0.364,2.012,1.095,2.777c0.729,0.767,1.706,1.149,2.926,1.149h10.996c1.02,0,1.959-0.333,2.825-0.995
		c0.867-0.663,1.299-1.64,1.299-2.932V48.778h8.479c0.612,0,1.158-0.146,1.633-0.436c0.477-0.289,0.892-0.638,1.248-1.041
		c0.357-0.408,0.63-0.849,0.816-1.326c0.19-0.472,0.284-0.913,0.284-1.321V32.996C138.062,31.703,137.67,30.758,136.89,30.143z"/>
	<path fill="#FFFFFF" d="M148.862,3.874c0-1.087,0.272-2.002,0.816-2.752C150.22,0.374,151.155,0,152.477,0h12.473
		c0.34,0,0.697,0.094,1.069,0.28c0.374,0.186,0.72,0.452,1.045,0.789c0.321,0.341,0.592,0.75,0.812,1.227
		c0.22,0.475,0.332,1.002,0.332,1.578v86.303c0,1.292-0.364,2.269-1.096,2.932c-0.729,0.662-1.672,0.995-2.825,0.995h-11.811
		c-1.322,0-2.256-0.333-2.798-0.995c-0.544-0.663-0.816-1.64-0.816-2.932V3.874z"/>
	<path fill="#FFFFFF" d="M0,3.928c0-1.431,0.305-2.44,0.915-3.034C1.527,0.298,2.476,0,3.767,0h11.812
		c1.187,0,2.146,0.298,2.875,0.895c0.729,0.594,1.096,1.603,1.096,3.034v9.949c0,0.408-0.095,0.851-0.281,1.328
		c-0.188,0.475-0.449,0.936-0.79,1.376c-0.338,0.443-0.754,0.81-1.247,1.099c-0.493,0.291-1.041,0.431-1.653,0.431H3.767
		C1.255,18.11,0,16.7,0,13.877V3.928z"/>
	<line fill="#FFFFFF" x1="31.204" y1="94.104" x2="31.204" y2="80.795"/>
	<path fill="#FFFFFF" d="M92.509,59.601c-0.427-16.606-13.963-29.939-30.633-29.939c-16.505,0-29.923,13.067-30.607,29.437h-0.036
		v0.708c-0.003,0.199-0.03,0.393-0.03,0.592c0,0.269,0.022,0.53,0.03,0.793v3.267h-0.03v25.717c0,1.19,0.321,2.142,0.963,2.857
		c0.649,0.713,1.702,1.071,3.161,1.071h11.508c0.506,0,0.956-0.051,1.344-0.151c0.39-0.104,0.807-0.292,1.252-0.562
		c0.436-0.308,0.769-0.747,0.991-1.325c0.22-0.578,0.33-1.155,0.33-1.736V72.909v-8.451V60.48c0-6.287,4.849-11.468,11.125-11.468
		c6.274,0,11.357,5.098,11.357,11.386V88.95c0.078-0.029-0.04-0.066,0.036-0.097v1.627c0,1.431,0.27,2.392,0.814,2.882
		c0.542,0.495,1.543,0.741,3.001,0.741h11.952c1.22,0,2.112-0.331,2.673-0.993c0.557-0.663,0.84-1.642,0.84-2.936V70.363v-5.905
		v-4.857H92.509z"/>
	<path fill="#FFFFFF" d="M312.125,90.175l-1.548-2.112h0.066l-26.696-36.337l-1.708-2.326c-0.551-0.563-1.285-0.939-2.138-0.939
		c-0.995,0-1.83,0.505-2.398,1.236l-3.146,4.297l-5.646,7.703h-0.005l-20.881,28.479c-0.946,1.294-1.274,2.272-0.979,2.936
		c0.294,0.662,1.06,0.993,2.298,0.993h14.165c1.415,0,2.663-0.331,3.729-0.993c1.066-0.663,2.076-1.642,3.022-2.936l9.815-13.386
		l9.815,13.386c0.947,1.294,1.954,2.272,3.021,2.936c1.068,0.662,2.312,0.993,3.73,0.993h14.166c1.236,0,2-0.331,2.298-0.993
		C313.4,92.447,313.074,91.469,312.125,90.175z"/>
	<path fill="#FFFFFF" d="M312.125,33.218l-1.548,2.112h0.066l-26.696,36.337l-1.708,2.325c-0.551,0.564-1.285,0.94-2.138,0.94
		c-0.995,0-1.83-0.505-2.398-1.236l-3.146-4.297l-5.646-7.704h-0.005l-20.881-28.478c-0.946-1.293-1.274-2.272-0.979-2.935
		c0.294-0.663,1.06-0.993,2.298-0.993h14.165c1.415,0,2.663,0.331,3.729,0.993s2.076,1.642,3.022,2.935l9.815,13.386l9.815-13.386
		c0.947-1.293,1.954-2.272,3.021-2.935c1.068-0.663,2.312-0.993,3.73-0.993h14.166c1.236,0,2,0.331,2.298,0.993
		C313.4,30.946,313.074,31.925,312.125,33.218z"/>
	<path fill="#FFFFFF" d="M220.397,50.822v12.544c0,6.288-5.084,11.386-11.358,11.386c-6.277,0-11.125-5.181-11.125-11.468V51.48
		v-0.658h-19.548v0.658h0.029v11.092c-0.006,0.265-0.029,0.525-0.029,0.794c0,0.199,0.027,0.393,0.029,0.592v0.709h0.035
		c0.686,16.369,14.104,29.437,30.608,29.437c16.67,0,30.205-13.333,30.632-29.939h0.041V51.48v-0.658H220.397z"/>
	<path fill="#FAB62C" d="M239.711,47.641V33.542c0-1.415-0.362-2.41-1.082-2.997c-0.721-0.59-1.67-0.883-2.84-0.883h-11.663
		c-1.278,0-2.214,0.293-2.818,0.883c-0.604,0.587-0.904,1.582-0.904,2.997v14.099H239.711z"/>
	<path fill="#FAB62C" d="M197.951,47.641V33.599c0-1.433-0.367-2.447-1.101-3.041c-0.729-0.599-1.693-0.896-2.881-0.896h-11.843
		c-1.296,0-2.245,0.298-2.859,0.896c-0.612,0.594-0.917,1.608-0.917,3.041v14.042H197.951z"/>
</g>
</svg>
