<?xml version="1.0" encoding="utf-8"?>
<!-- Generator: Adobe Illustrator 16.0.0, SVG Export Plug-In . SVG Version: 6.00 Build 0)  -->
<!DOCTYPE svg PUBLIC "-//W3C//DTD SVG 1.1//EN" "http://www.w3.org/Graphics/SVG/1.1/DTD/svg11.dtd">
<svg version="1.1" id="Layer_1" xmlns="http://www.w3.org/2000/svg" xmlns:xlink="http://www.w3.org/1999/xlink" x="0px" y="0px"
	 width="133.376px" height="40.076px" viewBox="0 0 133.376 40.076" enable-background="new 0 0 133.376 40.076"
	 xml:space="preserve">
<path fill="#FFFFFF" d="M0,14.176c0-0.463,0.13-0.862,0.39-1.196c0.261-0.332,0.665-0.499,1.214-0.499h4.965
	c0.173,0,0.361,0.04,0.563,0.121c0.203,0.079,0.391,0.195,0.564,0.348c0.172,0.151,0.321,0.328,0.443,0.531
	c0.123,0.202,0.185,0.435,0.185,0.695v24.224c0,0.552-0.151,0.968-0.456,1.248c-0.303,0.283-0.737,0.426-1.3,0.426H1.604
	C0.535,40.072,0,39.515,0,38.399V14.176z"/>
<path fill="#FFFFFF" d="M58.292,12.836c-0.334-0.26-0.733-0.389-1.196-0.389h-3.61V9.854c0-0.304,0.065-0.582,0.195-0.837
	c0.13-0.252,0.304-0.473,0.521-0.661c0.216-0.189,0.462-0.337,0.737-0.445c0.274-0.109,0.563-0.164,0.867-0.164h1.434
	c0.462,0,0.834-0.176,1.116-0.531c0.282-0.354,0.422-0.801,0.422-1.337v-4.15c0-0.521-0.133-0.931-0.4-1.229
	c-0.268-0.296-0.647-0.444-1.138-0.444h-1.434c-1.374,0-2.688,0.258-3.946,0.772c-1.257,0.513-2.37,1.216-3.338,2.106
	c-0.968,0.89-1.742,1.93-2.319,3.117c-0.578,1.187-0.867,2.455-0.867,3.802v2.593h-2.249c-1.114,0-1.672,0.533-1.672,1.604v0.642
	c0,0.017-0.003,0.031-0.003,0.048l0.003,0.005v4.271c0,0.562,0.142,0.996,0.424,1.299c0.282,0.305,0.698,0.458,1.248,0.458h2.249
	v17.627c0,0.463,0.155,0.856,0.466,1.185c0.311,0.326,0.727,0.489,1.246,0.489h4.683c0.434,0,0.834-0.143,1.203-0.426
	c0.369-0.28,0.553-0.696,0.553-1.248V20.771h3.61c0.261,0,0.493-0.062,0.695-0.186c0.203-0.123,0.38-0.271,0.531-0.443
	c0.152-0.174,0.269-0.361,0.348-0.564c0.081-0.201,0.121-0.389,0.121-0.562v-4.965C58.792,13.5,58.625,13.098,58.292,12.836z"/>
<path fill="#FFFFFF" d="M63.391,1.649c0-0.463,0.116-0.853,0.348-1.172C63.969,0.159,64.367,0,64.93,0h5.312
	c0.145,0,0.297,0.04,0.453,0.119c0.16,0.079,0.309,0.192,0.445,0.336c0.137,0.146,0.252,0.319,0.346,0.522
	c0.096,0.202,0.143,0.427,0.143,0.672v36.75c0,0.551-0.154,0.967-0.467,1.248c-0.311,0.283-0.711,0.425-1.203,0.425H64.93
	c-0.563,0-0.961-0.142-1.191-0.425c-0.232-0.281-0.348-0.697-0.348-1.248V1.649z"/>
<path fill="#FFFFFF" d="M0,1.673c0-0.609,0.13-1.039,0.39-1.292C0.65,0.127,1.054,0,1.604,0h5.03c0.505,0,0.914,0.127,1.224,0.381
	c0.311,0.253,0.467,0.683,0.467,1.292v4.236c0,0.174-0.041,0.362-0.12,0.565C8.125,6.676,8.014,6.872,7.869,7.06
	C7.725,7.249,7.547,7.405,7.338,7.528c-0.21,0.124-0.443,0.184-0.704,0.184h-5.03C0.535,7.712,0,7.111,0,5.909V1.673z"/>
<line fill="none" x1="13.288" y1="40.072" x2="13.288" y2="34.405"/>
<path fill="#FFFFFF" d="M39.394,25.38c-0.182-7.071-5.946-12.749-13.044-12.749c-7.028,0-12.742,5.564-13.034,12.535H13.3v0.302
	c-0.001,0.085-0.013,0.167-0.013,0.252c0,0.114,0.009,0.228,0.013,0.338v1.393h-0.013v10.949c0,0.509,0.137,0.912,0.41,1.219
	c0.276,0.304,0.725,0.456,1.346,0.456h4.9c0.216,0,0.407-0.021,0.572-0.064c0.166-0.044,0.344-0.124,0.533-0.237
	c0.186-0.131,0.327-0.318,0.422-0.564c0.094-0.246,0.141-0.492,0.141-0.739v-7.418V27.45v-1.693c0-2.678,2.064-4.884,4.737-4.884
	c2.672,0,4.836,2.171,4.836,4.849V37.88c0.033-0.013-0.017-0.027,0.015-0.041v0.692c0,0.608,0.115,1.019,0.347,1.228
	c0.23,0.211,0.657,0.315,1.278,0.315h5.089c0.52,0,0.899-0.142,1.138-0.423c0.237-0.282,0.358-0.699,0.358-1.25v-8.438v-2.515V25.38
	H39.394z"/>
<path fill="#FFFFFF" d="M132.913,38.399l-0.658-0.899h0.027l-11.367-15.474l-0.729-0.99c-0.233-0.24-0.547-0.4-0.91-0.4
	c-0.424,0-0.778,0.215-1.021,0.526l-1.34,1.83l-2.403,3.28h-0.003l-8.891,12.127c-0.404,0.551-0.543,0.968-0.418,1.25
	c0.125,0.281,0.45,0.423,0.979,0.423h6.031c0.604,0,1.135-0.142,1.588-0.423c0.453-0.282,0.885-0.699,1.287-1.25l4.18-5.7l4.18,5.7
	c0.404,0.551,0.832,0.968,1.287,1.25c0.455,0.281,0.982,0.423,1.588,0.423h6.033c0.525,0,0.853-0.142,0.979-0.423
	C133.456,39.367,133.316,38.95,132.913,38.399z"/>
<path fill="#FFFFFF" d="M132.913,14.146l-0.658,0.899h0.027l-11.367,15.474l-0.729,0.99c-0.233,0.24-0.547,0.4-0.91,0.4
	c-0.424,0-0.778-0.215-1.021-0.526l-1.34-1.83l-2.403-3.28h-0.003l-8.891-12.125c-0.404-0.551-0.543-0.968-0.418-1.25
	c0.125-0.282,0.45-0.423,0.979-0.423h6.031c0.604,0,1.135,0.141,1.588,0.423c0.453,0.282,0.885,0.699,1.287,1.25l4.18,5.7l4.18-5.7
	c0.404-0.551,0.832-0.968,1.287-1.25c0.455-0.282,0.982-0.423,1.588-0.423h6.033c0.525,0,0.853,0.141,0.979,0.423
	C133.456,13.178,133.316,13.595,132.913,14.146z"/>
</svg>
